<svg width="512" height="512" viewBox="0 0 512 512" fill="none" xmlns="http://www.w3.org/2000/svg">
  <rect width="512" height="512" rx="96" fill="#111827"/>
  <circle cx="382" cy="116" r="72" fill="#820AD1"/>
  <circle cx="130" cy="396" r="82" fill="#1DB954"/>
  <path d="M117 297L189 126H248L320 297H263L252 267H184L173 297H117ZM199 225H237L218 171L199 225Z" fill="white"/>
  <path d="M326 297V126H398C418 126 435 132 447 144C459 155 465 171 465 190C465 208 459 224 447 235C435 246 418 252 398 252H379V297H326ZM379 209H392C403 209 409 203 409 191C409 180 403 174 392 174H379V209Z" fill="white"/>
  <path d="M129 366C129 337 151 316 184 316C216 316 238 337 238 366C238 394 216 416 184 416C151 416 129 394 129 366ZM177 366C177 377 180 383 184 383C188 383 191 377 191 366C191 355 188 349 184 349C180 349 177 355 177 366Z" fill="white"/>
  <path d="M257 414V319H332V355H301V414H257Z" fill="white"/>
</svg>
